<svg id="SvgjsSvg1006" width="5000px" height="3402.8212511998663px" xmlns="http://www.w3.org/2000/svg" version="1.1" xmlns:xlink="http://www.w3.org/1999/xlink" xmlns:svgjs="http://svgjs.com/svgjs" viewBox="0 0 374.390625 254.796875"><defs id="SvgjsDefs1007"></defs><g id="SvgjsG1009" transform="rotate(0 187.1953125 90)"><svg height="180" viewBox="0 0 68 100" xmlns="http://www.w3.org/2000/svg" version="1.1" xmlns:xlink="http://www.w3.org/1999/xlink" xmlns:svgjs="http://svgjs.com/svgjs" preserveAspectRatio="none" width="122.390625" x="126" y="0"><g><svg data-color="1" version="1.1" xmlns="http://www.w3.org/2000/svg" xmlns:xlink="http://www.w3.org/1999/xlink" x="0px" y="0px" viewBox="0 0 68 100" enable-background="new 0 0 68 100" xml:space="preserve" fill="#ba7b48"><path d="M60.5,41.338V26.5C60.5,11.888,48.612,0,34,0S7.5,11.888,7.5,26.5v14.838L0,42v55l34,3l34-3V42L60.5,41.338z M15.5,40.633
	V26.5C15.5,16.299,23.799,8,34,8s18.5,8.299,18.5,18.5v14.133L34,39L15.5,40.633z"></path></svg></g><defs id="SvgjsDefs1008"></defs></svg></g><g id="SvgjsG1011" transform="rotate(0 187.1953125 232.3984375)"><svg xmlns="http://www.w3.org/2000/svg" xmlns:xlink="http://www.w3.org/1999/xlink" width="374.390625" viewBox="1.9600000381469727 12 374.3999938964844 38.79999923706055" overflow="visible" style="overflow: visible;" transform="" version="1.1" xmlns:svgjs="http://svgjs.com/svgjs" preserveAspectRatio="none" height="38.796875" x="0" y="213" fill="#000000" stroke="none"><path stroke="none" fill="#dbc295" d="M12.08 14.40L12.08 14.40Q14.36 14.40 15.78 14.82L15.78 14.82L15.78 14.82Q17.20 15.24 18.56 16L18.56 16L18.56 16Q19 16.24 19.34 16.40L19.34 16.40L19.34 16.40Q19.68 16.56 19.92 16.56L19.92 16.56L19.92 16.56Q20.28 16.56 20.48 16.14L20.48 16.14L20.48 16.14Q20.68 15.72 20.80 14.80L20.80 14.80L21.72 14.80L21.72 14.80Q21.52 17.68 21.52 24.56L21.52 24.56L20.60 24.56L20.60 24.56Q20.44 22.28 19.56 20.20L19.56 20.20L19.56 20.20Q18.68 18.12 17.16 16.80L17.16 16.80L17.16 16.80Q15.64 15.48 13.64 15.48L13.64 15.48L13.64 15.48Q11.80 15.48 10.68 16.46L10.68 16.46L10.68 16.46Q9.56 17.44 9.56 19.20L9.56 19.20L9.56 19.20Q9.56 20.56 10.16 21.56L10.16 21.56L10.16 21.56Q10.76 22.56 11.92 23.50L11.92 23.50L11.92 23.50Q13.08 24.44 15.72 26.28L15.72 26.28L15.72 26.28Q15.96 26.40 16.18 26.56L16.18 26.56L16.18 26.56Q16.40 26.72 16.60 26.88L16.60 26.88L16.60 26.88Q18.80 28.40 20.12 29.58L20.12 29.58L20.12 29.58Q21.44 30.76 22.26 32.32L22.26 32.32L22.26 32.32Q23.08 33.88 23.08 35.92L23.08 35.92L23.08 35.92Q23.08 38.52 21.62 40.30L21.62 40.30L21.62 40.30Q20.16 42.08 17.68 42.96L17.68 42.96L17.68 42.96Q15.20 43.84 12.20 43.84L12.20 43.84L12.20 43.84Q9.76 43.84 8.14 43.44L8.14 43.44L8.14 43.44Q6.52 43.04 5.12 42.36L5.12 42.36L5.12 42.36Q4.24 41.80 3.76 41.80L3.76 41.80L3.76 41.80Q3.40 41.80 3.20 42.22L3.20 42.22L3.20 42.22Q3 42.64 2.88 43.56L2.88 43.56L1.96 43.56L1.96 43.56Q2.12 40.84 2.12 31.96L2.12 31.96L3.04 31.96L3.04 31.96Q3.32 36.72 5.04 39.68L5.04 39.68L5.04 39.68Q6.76 42.64 10.32 42.64L10.32 42.64L10.32 42.64Q12.52 42.64 13.82 41.60L13.82 41.60L13.82 41.60Q15.12 40.56 15.12 38.72L15.12 38.72L15.12 38.72Q15.12 36.44 13.70 34.82L13.70 34.82L13.70 34.82Q12.28 33.20 9.28 31.20L9.28 31.20L9.28 31.20Q6.88 29.60 5.44 28.40L5.44 28.40L5.44 28.40Q4 27.20 3.08 25.62L3.08 25.62L3.08 25.62Q2.16 24.04 2.16 21.96L2.16 21.96L2.16 21.96Q2.16 19.44 3.52 17.74L3.52 17.74L3.52 17.74Q4.88 16.04 7.14 15.22L7.14 15.22L7.14 15.22Q9.40 14.40 12.08 14.40L12.08 14.40ZM35.68 12L35.68 24.96L35.68 24.96Q37.48 21.96 42.04 21.96L42.04 21.96L42.04 21.96Q45.24 21.96 46.56 23.56L46.56 23.56L46.56 23.56Q47.16 24.28 47.44 25.50L47.44 25.50L47.44 25.50Q47.72 26.72 47.72 28.72L47.72 28.72L47.72 39.56L47.72 39.56Q47.72 41.20 48.22 41.82L48.22 41.82L48.22 41.82Q48.72 42.44 49.96 42.44L49.96 42.44L49.96 43.28L49.96 43.28Q45.64 43.12 44.36 43.12L44.36 43.12L44.36 43.12Q43 43.12 38.68 43.28L38.68 43.28L38.68 42.44L38.68 42.44Q39.72 42.44 40.12 41.82L40.12 41.82L40.12 41.82Q40.52 41.20 40.52 39.56L40.52 39.56L40.52 26.56L40.52 26.56Q40.52 25.28 40.06 24.66L40.06 24.66L40.06 24.66Q39.60 24.04 38.56 24.04L38.56 24.04L38.56 24.04Q37.40 24.04 36.54 24.86L36.54 24.86L36.54 24.86Q35.68 25.68 35.68 26.92L35.68 26.92L35.68 39.56L35.68 39.56Q35.68 41.20 36.08 41.82L36.08 41.82L36.08 41.82Q36.48 42.44 37.52 42.44L37.52 42.44L37.52 43.28L37.52 43.28Q33.52 43.12 32.24 43.12L32.24 43.12L32.24 43.12Q30.88 43.12 26.24 43.28L26.24 43.28L26.24 42.44L26.24 42.44Q27.48 42.44 27.98 41.82L27.98 41.82L27.98 41.82Q28.48 41.20 28.48 39.56L28.48 39.56L28.48 16.80L28.48 16.80Q28.48 14.96 27.98 14.12L27.98 14.12L27.98 14.12Q27.48 13.28 26.24 13.28L26.24 13.28L26.24 12.44L26.24 12.44Q27.48 12.56 28.72 12.56L28.72 12.56L28.72 12.56Q32.88 12.56 35.68 12L35.68 12ZM64.72 39.48L64.72 39.48Q67.64 39.48 69.56 36.80L69.56 36.80L70.24 37.04L70.24 37.04Q69.36 39.84 67.26 41.84L67.26 41.84L67.26 41.84Q65.16 43.84 61.88 43.84L61.88 43.84L61.88 43.84Q57.68 43.84 55.16 41.24L55.16 41.24L55.16 41.24Q52.64 38.64 52.64 32.92L52.64 32.92L52.64 32.92Q52.64 27.44 55.46 24.70L55.46 24.70L55.46 24.70Q58.28 21.96 62.92 21.96L62.92 21.96L62.92 21.96Q70.48 21.96 70.48 30.92L70.48 30.92L60.16 30.92L60.16 30.92Q60.12 31.40 60.12 32.36L60.12 32.36L60.12 32.36Q60.12 36.20 61.46 37.84L61.46 37.84L61.46 37.84Q62.80 39.48 64.72 39.48L64.72 39.48ZM62.64 22.88L62.64 22.88Q60.40 22.88 60 30.16L60 30.16L64.64 30.16L64.64 30.16Q64.68 26.96 64.18 24.92L64.18 24.92L64.18 24.92Q63.68 22.88 62.64 22.88L62.64 22.88ZM78.56 43.56L78.56 43.56Q76 43.56 74.70 42.18L74.70 42.18L74.70 42.18Q73.40 40.80 73.40 38.72L73.40 38.72L73.40 38.72Q73.40 36.92 74.34 35.74L74.34 35.74L74.34 35.74Q75.28 34.56 76.56 33.92L76.56 33.92L76.56 33.92Q77.84 33.28 79.88 32.60L79.88 32.60L79.88 32.60Q82.04 31.88 83.04 31.28L83.04 31.28L83.04 31.28Q84.04 30.68 84.04 29.60L84.04 29.60L84.04 26.04L84.04 26.04Q84.04 24.76 83.40 23.76L83.40 23.76L83.40 23.76Q82.76 22.76 81.20 22.76L81.20 22.76L81.20 22.76Q79.96 22.76 78.96 23.44L78.96 23.44L78.96 23.44Q80.32 23.92 80.98 24.86L80.98 24.86L80.98 24.86Q81.64 25.80 81.64 26.96L81.64 26.96L81.64 26.96Q81.64 28.52 80.54 29.46L80.54 29.46L80.54 29.46Q79.44 30.40 77.88 30.40L77.88 30.40L77.88 30.40Q76.32 30.40 75.42 29.42L75.42 29.42L75.42 29.42Q74.52 28.44 74.52 26.92L74.52 26.92L74.52 26.92Q74.52 25.72 75.12 24.84L75.12 24.84L75.12 24.84Q75.72 23.96 77 23.24L77 23.24L77 23.24Q79.24 21.96 83.40 21.96L83.40 21.96L83.40 21.96Q85.60 21.96 87.20 22.38L87.20 22.38L87.20 22.38Q88.80 22.80 89.92 23.96L89.92 23.96L89.92 23.96Q90.72 24.80 90.98 26.06L90.98 26.06L90.98 26.06Q91.24 27.32 91.24 29.56L91.24 29.56L91.24 40.28L91.24 40.28Q91.24 41.28 91.38 41.64L91.38 41.64L91.38 41.64Q91.52 42 91.88 42L91.88 42L91.88 42Q92.16 42 92.48 41.82L92.48 41.82L92.48 41.82Q92.80 41.64 93.08 41.40L93.08 41.40L93.48 42.08L93.48 42.08Q91.76 43.56 88.56 43.56L88.56 43.56L88.56 43.56Q86.16 43.56 85.20 42.74L85.20 42.74L85.20 42.74Q84.24 41.92 84.16 40.52L84.16 40.52L84.16 40.52Q82.28 43.56 78.56 43.56L78.56 43.56ZM82.56 40.36L82.56 40.36Q83.40 40.36 84.04 39.68L84.04 39.68L84.04 31.24L84.04 31.24Q83.68 31.84 82.72 32.80L82.72 32.80L82.72 32.80Q81.64 33.84 81.08 34.82L81.08 34.82L81.08 34.82Q80.52 35.80 80.52 37.48L80.52 37.48L80.52 37.48Q80.52 40.36 82.56 40.36L82.56 40.36ZM110.20 21.96L110.20 21.96Q112.16 21.96 113.02 23.16L113.02 23.16L113.02 23.16Q113.88 24.36 113.88 26L113.88 26L113.88 26Q113.88 27.80 112.86 28.86L112.86 28.86L112.86 28.86Q111.84 29.92 110.20 29.92L110.20 29.92L110.20 29.92Q108.48 29.92 107.56 29.14L107.56 29.14L107.56 29.14Q106.64 28.36 106.64 27.04L106.64 27.04L106.64 27.04Q106.64 24.68 108.68 23.32L108.68 23.32L108.68 23.32Q107.96 23.32 107.40 23.60L107.40 23.60L107.40 23.60Q106.40 24.04 105.72 25.02L105.72 25.02L105.72 25.02Q105.04 26 105.04 27.16L105.04 27.16L105.04 39.16L105.04 39.16Q105.04 41.04 105.82 41.74L105.82 41.74L105.82 41.74Q106.60 42.44 108.48 42.44L108.48 42.44L108.48 43.28L108.48 43.28Q107.96 43.28 107.60 43.24L107.60 43.24L107.60 43.24Q103.40 43.12 102.00 43.12L102.00 43.12L102.00 43.12Q100.76 43.12 96.44 43.24L96.44 43.24L96.44 43.24Q96.12 43.28 95.60 43.28L95.60 43.28L95.60 42.44L95.60 42.44Q96.84 42.44 97.34 41.82L97.34 41.82L97.34 41.82Q97.84 41.20 97.84 39.56L97.84 39.56L97.84 26.88L97.84 26.88Q97.84 25.04 97.34 24.20L97.34 24.20L97.34 24.20Q96.84 23.36 95.60 23.36L95.60 23.36L95.60 22.52L95.60 22.52Q96.88 22.64 98.08 22.64L98.08 22.64L98.08 22.64Q102.24 22.64 105.04 22.08L105.04 22.08L105.04 24.96L105.04 24.96Q106.56 21.96 110.20 21.96L110.20 21.96ZM130.32 14.96L130.32 15.76L130.32 15.76Q128.88 15.84 128.22 16.08L128.22 16.08L128.22 16.08Q127.56 16.32 127.32 17L127.32 17L127.32 17Q127.08 17.68 127.08 19.20L127.08 19.20L127.08 39.84L127.08 39.84Q127.08 40.96 127.24 41.48L127.24 41.48L127.24 41.48Q127.40 42 127.80 42.18L127.80 42.18L127.80 42.18Q128.20 42.36 129.12 42.36L129.12 42.36L130.44 42.36L130.44 42.36Q131.84 42.36 133.48 40.96L133.48 40.96L133.48 40.96Q135.12 39.56 136.44 37.26L136.44 37.26L136.44 37.26Q137.76 34.96 138.20 32.48L138.20 32.48L139.12 32.48L139.12 32.48Q139 33.92 139 36.16L139 36.16L139 36.16Q139 40.48 139.28 43.28L139.28 43.28L139.28 43.28Q136.56 43.16 130.12 43.16L130.12 43.16L130.12 43.16Q120.76 43.16 116.12 43.28L116.12 43.28L116.12 42.48L116.12 42.48Q117.40 42.40 117.98 42.16L117.98 42.16L117.98 42.16Q118.56 41.92 118.76 41.24L118.76 41.24L118.76 41.24Q118.96 40.56 118.96 39.04L118.96 39.04L118.96 19.20L118.96 19.20Q118.96 17.68 118.74 17L118.74 17L118.74 17Q118.52 16.32 117.96 16.08L117.96 16.08L117.96 16.08Q117.40 15.84 116.12 15.76L116.12 15.76L116.12 14.96L116.12 14.96Q118.40 15.08 123.24 15.08L123.24 15.08L123.24 15.08Q127.84 15.08 130.32 14.96L130.32 14.96ZM147.48 12L147.48 12Q149.56 12 150.70 12.88L150.70 12.88L150.70 12.88Q151.84 13.76 151.84 15.44L151.84 15.44L151.84 15.44Q151.84 17.12 150.70 18L150.70 18L150.70 18Q149.56 18.88 147.48 18.88L147.48 18.88L147.48 18.88Q145.36 18.88 144.24 18L144.24 18L144.24 18Q143.12 17.12 143.12 15.44L143.12 15.44L143.12 15.44Q143.12 13.76 144.24 12.88L144.24 12.88L144.24 12.88Q145.36 12 147.48 12L147.48 12ZM151.32 22.08L151.32 39.56L151.32 39.56Q151.32 41.20 151.82 41.82L151.82 41.82L151.82 41.82Q152.32 42.44 153.56 42.44L153.56 42.44L153.56 43.28L153.56 43.28Q149.24 43.12 147.88 43.12L147.88 43.12L147.88 43.12Q146.52 43.12 141.88 43.28L141.88 43.28L141.88 42.44L141.88 42.44Q143.12 42.44 143.62 41.82L143.62 41.82L143.62 41.82Q144.12 41.20 144.12 39.56L144.12 39.56L144.12 26.88L144.12 26.88Q144.12 25.04 143.62 24.20L143.62 24.20L143.62 24.20Q143.12 23.36 141.88 23.36L141.88 23.36L141.88 22.52L141.88 22.52Q143.16 22.64 144.36 22.64L144.36 22.64L144.36 22.64Q148.52 22.64 151.32 22.08L151.32 22.08ZM171.88 21.96L171.88 21.96Q175.08 21.96 176.40 23.56L176.40 23.56L176.40 23.56Q177.00 24.28 177.28 25.50L177.28 25.50L177.28 25.50Q177.56 26.72 177.56 28.72L177.56 28.72L177.56 39.56L177.56 39.56Q177.56 41.20 178.06 41.82L178.06 41.82L178.06 41.82Q178.56 42.44 179.80 42.44L179.80 42.44L179.80 43.28L179.80 43.28Q175.48 43.12 174.20 43.12L174.20 43.12L174.20 43.12Q172.84 43.12 168.52 43.28L168.52 43.28L168.52 42.44L168.52 42.44Q169.56 42.44 169.96 41.82L169.96 41.82L169.96 41.82Q170.36 41.20 170.36 39.56L170.36 39.56L170.36 26.56L170.36 26.56Q170.36 25.28 169.90 24.66L169.90 24.66L169.90 24.66Q169.44 24.04 168.40 24.04L168.40 24.04L168.40 24.04Q167.24 24.04 166.38 24.86L166.38 24.86L166.38 24.86Q165.52 25.68 165.52 26.92L165.52 26.92L165.52 39.56L165.52 39.56Q165.52 41.20 165.92 41.82L165.92 41.82L165.92 41.82Q166.32 42.44 167.36 42.44L167.36 42.44L167.36 43.28L167.36 43.28Q163.36 43.12 162.08 43.12L162.08 43.12L162.08 43.12Q160.72 43.12 156.08 43.28L156.08 43.28L156.08 42.44L156.08 42.44Q157.32 42.44 157.82 41.82L157.82 41.82L157.82 41.82Q158.32 41.20 158.32 39.56L158.32 39.56L158.32 26.88L158.32 26.88Q158.32 25.04 157.82 24.20L157.82 24.20L157.82 24.20Q157.32 23.36 156.08 23.36L156.08 23.36L156.08 22.52L156.08 22.52Q157.36 22.64 158.56 22.64L158.56 22.64L158.56 22.64Q162.72 22.64 165.52 22.08L165.52 22.08L165.52 24.96L165.52 24.96Q167.32 21.96 171.88 21.96L171.88 21.96ZM194.56 39.48L194.56 39.48Q197.48 39.48 199.40 36.80L199.40 36.80L200.08 37.04L200.08 37.04Q199.20 39.84 197.10 41.84L197.10 41.84L197.10 41.84Q195.00 43.84 191.72 43.84L191.72 43.84L191.72 43.84Q187.52 43.84 185.00 41.24L185.00 41.24L185.00 41.24Q182.48 38.64 182.48 32.92L182.48 32.92L182.48 32.92Q182.48 27.44 185.30 24.70L185.30 24.70L185.30 24.70Q188.12 21.96 192.76 21.96L192.76 21.96L192.76 21.96Q200.32 21.96 200.32 30.92L200.32 30.92L190.00 30.92L190.00 30.92Q189.96 31.40 189.96 32.36L189.96 32.36L189.96 32.36Q189.96 36.20 191.30 37.84L191.30 37.84L191.30 37.84Q192.64 39.48 194.56 39.48L194.56 39.48ZM192.48 22.88L192.48 22.88Q190.24 22.88 189.84 30.16L189.84 30.16L194.48 30.16L194.48 30.16Q194.52 26.96 194.02 24.92L194.02 24.92L194.02 24.92Q193.52 22.88 192.48 22.88L192.48 22.88ZM224.36 14.40L224.36 14.40Q226.64 14.40 228.06 14.82L228.06 14.82L228.06 14.82Q229.48 15.24 230.84 16L230.84 16L230.84 16Q231.28 16.24 231.62 16.40L231.62 16.40L231.62 16.40Q231.96 16.56 232.20 16.56L232.20 16.56L232.20 16.56Q232.56 16.56 232.76 16.14L232.76 16.14L232.76 16.14Q232.96 15.72 233.08 14.80L233.08 14.80L234.00 14.80L234.00 14.80Q233.80 17.68 233.80 24.56L233.80 24.56L232.88 24.56L232.88 24.56Q232.72 22.28 231.84 20.20L231.84 20.20L231.84 20.20Q230.96 18.12 229.44 16.80L229.44 16.80L229.44 16.80Q227.92 15.48 225.92 15.48L225.92 15.48L225.92 15.48Q224.08 15.48 222.96 16.46L222.96 16.46L222.96 16.46Q221.84 17.44 221.84 19.20L221.84 19.20L221.84 19.20Q221.84 20.56 222.44 21.56L222.44 21.56L222.44 21.56Q223.04 22.56 224.20 23.50L224.20 23.50L224.20 23.50Q225.36 24.44 228.00 26.28L228.00 26.28L228.00 26.28Q228.24 26.40 228.46 26.56L228.46 26.56L228.46 26.56Q228.68 26.72 228.88 26.88L228.88 26.88L228.88 26.88Q231.08 28.40 232.40 29.58L232.40 29.58L232.40 29.58Q233.72 30.76 234.54 32.32L234.54 32.32L234.54 32.32Q235.36 33.88 235.36 35.92L235.36 35.92L235.36 35.92Q235.36 38.52 233.90 40.30L233.90 40.30L233.90 40.30Q232.44 42.08 229.96 42.96L229.96 42.96L229.96 42.96Q227.48 43.84 224.48 43.84L224.48 43.84L224.48 43.84Q222.04 43.84 220.42 43.44L220.42 43.44L220.42 43.44Q218.80 43.04 217.40 42.36L217.40 42.36L217.40 42.36Q216.52 41.80 216.04 41.80L216.04 41.80L216.04 41.80Q215.68 41.80 215.48 42.22L215.48 42.22L215.48 42.22Q215.28 42.64 215.16 43.56L215.16 43.56L214.24 43.56L214.24 43.56Q214.40 40.84 214.40 31.96L214.40 31.96L215.32 31.96L215.32 31.96Q215.60 36.72 217.32 39.68L217.32 39.68L217.32 39.68Q219.04 42.64 222.60 42.64L222.60 42.64L222.60 42.64Q224.80 42.64 226.10 41.60L226.10 41.60L226.10 41.60Q227.40 40.56 227.40 38.72L227.40 38.72L227.40 38.72Q227.40 36.44 225.98 34.82L225.98 34.82L225.98 34.82Q224.56 33.20 221.56 31.20L221.56 31.20L221.56 31.20Q219.16 29.60 217.72 28.40L217.72 28.40L217.72 28.40Q216.28 27.20 215.36 25.62L215.36 25.62L215.36 25.62Q214.44 24.04 214.44 21.96L214.44 21.96L214.44 21.96Q214.44 19.44 215.80 17.74L215.80 17.74L215.80 17.74Q217.16 16.04 219.42 15.22L219.42 15.22L219.42 15.22Q221.68 14.40 224.36 14.40L224.36 14.40ZM251.12 39.48L251.12 39.48Q254.04 39.48 255.96 36.80L255.96 36.80L256.64 37.04L256.64 37.04Q255.76 39.84 253.66 41.84L253.66 41.84L253.66 41.84Q251.56 43.84 248.28 43.84L248.28 43.84L248.28 43.84Q244.08 43.84 241.56 41.24L241.56 41.24L241.56 41.24Q239.04 38.64 239.04 32.92L239.04 32.92L239.04 32.92Q239.04 27.44 241.86 24.70L241.86 24.70L241.86 24.70Q244.68 21.96 249.32 21.96L249.32 21.96L249.32 21.96Q256.88 21.96 256.88 30.92L256.88 30.92L246.56 30.92L246.56 30.92Q246.52 31.40 246.52 32.36L246.52 32.36L246.52 32.36Q246.52 36.20 247.86 37.84L247.86 37.84L247.86 37.84Q249.20 39.48 251.12 39.48L251.12 39.48ZM249.04 22.88L249.04 22.88Q246.80 22.88 246.40 30.16L246.40 30.16L251.04 30.16L251.04 30.16Q251.08 26.96 250.58 24.92L250.58 24.92L250.58 24.92Q250.08 22.88 249.04 22.88L249.04 22.88ZM270.40 21.96L270.40 21.96Q272.04 21.96 273.42 22.30L273.42 22.30L273.42 22.30Q274.80 22.64 275.68 23.16L275.68 23.16L275.68 23.16Q276.80 23.80 277.44 24.88L277.44 24.88L277.44 24.88Q278.08 25.96 278.08 27.32L278.08 27.32L278.08 27.32Q278.08 29 277.00 30.10L277.00 30.10L277.00 30.10Q275.92 31.20 274.24 31.20L274.24 31.20L274.24 31.20Q272.52 31.20 271.54 30.22L271.54 30.22L271.54 30.22Q270.56 29.24 270.56 27.60L270.56 27.60L270.56 27.60Q270.56 26.16 271.50 25.06L271.50 25.06L271.50 25.06Q272.44 23.96 273.84 23.60L273.84 23.60L273.84 23.60Q273.24 23.12 272.24 23.12L272.24 23.12L272.24 23.12Q269.68 23.12 268.64 25.86L268.64 25.86L268.64 25.86Q267.60 28.60 267.60 32.36L267.60 32.36L267.60 32.36Q267.60 36.20 269.04 37.84L269.04 37.84L269.04 37.84Q270.48 39.48 272.60 39.48L272.60 39.48L272.60 39.48Q275.52 39.48 277.44 36.80L277.44 36.80L278.12 37.04L278.12 37.04Q277.24 39.84 275.14 41.84L275.14 41.84L275.14 41.84Q273.04 43.84 269.76 43.84L269.76 43.84L269.76 43.84Q265.40 43.84 262.76 41.24L262.76 41.24L262.76 41.24Q260.12 38.64 260.12 32.92L260.12 32.92L260.12 32.92Q260.12 27.44 262.94 24.70L262.94 24.70L262.94 24.70Q265.76 21.96 270.40 21.96L270.40 21.96ZM301.96 22.08L301.96 38.92L301.96 38.92Q301.96 40.76 302.46 41.60L302.46 41.60L302.46 41.60Q302.96 42.44 304.20 42.44L304.20 42.44L304.20 43.28L304.20 43.28Q302.96 43.16 301.72 43.16L301.72 43.16L301.72 43.16Q297.56 43.16 294.76 43.72L294.76 43.72L294.76 40.84L294.76 40.84Q292.96 43.84 288.40 43.84L288.40 43.84L288.40 43.84Q285.20 43.84 283.88 42.24L283.88 42.24L283.88 42.24Q283.28 41.52 283.00 40.30L283.00 40.30L283.00 40.30Q282.72 39.08 282.72 37.08L282.72 37.08L282.72 26.88L282.72 26.88Q282.72 25.04 282.22 24.20L282.22 24.20L282.22 24.20Q281.72 23.36 280.48 23.36L280.48 23.36L280.48 22.52L280.48 22.52Q281.72 22.64 282.96 22.64L282.96 22.64L282.96 22.64Q287.12 22.64 289.92 22.08L289.92 22.08L289.92 39.24L289.92 39.24Q289.92 40.52 290.38 41.14L290.38 41.14L290.38 41.14Q290.84 41.76 291.88 41.76L291.88 41.76L291.88 41.76Q293.04 41.76 293.90 40.94L293.90 40.94L293.90 40.94Q294.76 40.12 294.76 38.88L294.76 38.88L294.76 26.88L294.76 26.88Q294.76 25.04 294.26 24.20L294.26 24.20L294.26 24.20Q293.76 23.36 292.52 23.36L292.52 23.36L292.52 22.52L292.52 22.52Q293.76 22.64 295.00 22.64L295.00 22.64L295.00 22.64Q299.16 22.64 301.96 22.08L301.96 22.08ZM321.36 21.96L321.36 21.96Q323.32 21.96 324.18 23.16L324.18 23.16L324.18 23.16Q325.04 24.36 325.04 26L325.04 26L325.04 26Q325.04 27.80 324.02 28.86L324.02 28.86L324.02 28.86Q323.00 29.92 321.36 29.92L321.36 29.92L321.36 29.92Q319.64 29.92 318.72 29.14L318.72 29.14L318.72 29.14Q317.80 28.36 317.80 27.04L317.80 27.04L317.80 27.04Q317.80 24.68 319.84 23.32L319.84 23.32L319.84 23.32Q319.12 23.32 318.56 23.60L318.56 23.60L318.56 23.60Q317.56 24.04 316.88 25.02L316.88 25.02L316.88 25.02Q316.20 26 316.20 27.16L316.20 27.16L316.20 39.16L316.20 39.16Q316.20 41.04 316.98 41.74L316.98 41.74L316.98 41.74Q317.76 42.44 319.64 42.44L319.64 42.44L319.64 43.28L319.64 43.28Q319.12 43.28 318.76 43.24L318.76 43.24L318.76 43.24Q314.56 43.12 313.16 43.12L313.16 43.12L313.16 43.12Q311.92 43.12 307.60 43.24L307.60 43.24L307.60 43.24Q307.28 43.28 306.76 43.28L306.76 43.28L306.76 42.44L306.76 42.44Q308.00 42.44 308.50 41.82L308.50 41.82L308.50 41.82Q309.00 41.20 309.00 39.56L309.00 39.56L309.00 26.88L309.00 26.88Q309.00 25.04 308.50 24.20L308.50 24.20L308.50 24.20Q308.00 23.36 306.76 23.36L306.76 23.36L306.76 22.52L306.76 22.52Q308.04 22.64 309.24 22.64L309.24 22.64L309.24 22.64Q313.40 22.64 316.20 22.08L316.20 22.08L316.20 24.96L316.20 24.96Q317.72 21.96 321.36 21.96L321.36 21.96ZM332.60 12L332.60 12Q334.68 12 335.82 12.88L335.82 12.88L335.82 12.88Q336.96 13.76 336.96 15.44L336.96 15.44L336.96 15.44Q336.96 17.12 335.82 18L335.82 18L335.82 18Q334.68 18.88 332.60 18.88L332.60 18.88L332.60 18.88Q330.48 18.88 329.36 18L329.36 18L329.36 18Q328.24 17.12 328.24 15.44L328.24 15.44L328.24 15.44Q328.24 13.76 329.36 12.88L329.36 12.88L329.36 12.88Q330.48 12 332.60 12L332.60 12ZM336.44 22.08L336.44 39.56L336.44 39.56Q336.44 41.20 336.94 41.82L336.94 41.82L336.94 41.82Q337.44 42.44 338.68 42.44L338.68 42.44L338.68 43.28L338.68 43.28Q334.36 43.12 333.00 43.12L333.00 43.12L333.00 43.12Q331.64 43.12 327.00 43.28L327.00 43.28L327.00 42.44L327.00 42.44Q328.24 42.44 328.74 41.82L328.74 41.82L328.74 41.82Q329.24 41.20 329.24 39.56L329.24 39.56L329.24 26.88L329.24 26.88Q329.24 25.04 328.74 24.20L328.74 24.20L328.74 24.20Q328.24 23.36 327.00 23.36L327.00 23.36L327.00 22.52L327.00 22.52Q328.28 22.64 329.48 22.64L329.48 22.64L329.48 22.64Q333.64 22.64 336.44 22.08L336.44 22.08ZM350.44 16.04L350.44 22.52L354.36 22.52L354.36 23.32L350.44 23.32L350.44 39.92L350.44 39.92Q350.44 40.72 350.72 41.04L350.72 41.04L350.72 41.04Q351.00 41.36 351.64 41.36L351.64 41.36L351.64 41.36Q352.12 41.36 352.72 41.08L352.72 41.08L352.72 41.08Q353.32 40.80 353.80 40.20L353.80 40.20L354.40 40.68L354.40 40.68Q352.56 43.84 348.72 43.84L348.72 43.84L348.72 43.84Q345.96 43.84 344.60 42.48L344.60 42.48L344.60 42.48Q343.76 41.64 343.50 40.40L343.50 40.40L343.50 40.40Q343.24 39.16 343.24 36.92L343.24 36.92L343.24 23.32L340.20 23.32L340.20 22.52L343.24 22.52L343.24 17.80L343.24 17.80Q345.40 17.80 347.14 17.38L347.14 17.38L347.14 17.38Q348.88 16.96 350.44 16.04L350.44 16.04ZM373.28 22.68L373.28 22.68Q375.56 22.68 376.36 22.52L376.36 22.52L376.36 23.36L376.36 23.36Q375.52 23.64 374.82 24.52L374.82 24.52L374.82 24.52Q374.12 25.40 373.52 27.24L373.52 27.24L368.52 42.12L366.84 46.96L366.84 46.96Q366.12 49.04 365.08 49.84L365.08 49.84L365.08 49.84Q363.84 50.80 361.36 50.80L361.36 50.80L361.36 50.80Q359.36 50.80 357.64 49.86L357.64 49.86L357.64 49.86Q355.92 48.92 355.92 47.04L355.92 47.04L355.92 47.04Q355.92 45.64 357.00 44.80L357.00 44.80L357.00 44.80Q358.08 43.96 359.84 43.96L359.84 43.96L359.84 43.96Q361.52 43.96 362.48 44.72L362.48 44.72L362.48 44.72Q363.44 45.48 363.44 46.92L363.44 46.92L363.44 46.92Q363.44 47.88 362.78 48.74L362.78 48.74L362.78 48.74Q362.12 49.60 360.84 50L360.84 50L360.84 50Q361.24 50.08 362.20 50.08L362.20 50.08L362.20 50.08Q364.96 50.08 366.00 46.88L366.00 46.88L366.20 46.20L356.88 25.60L356.88 25.60Q356.28 24.24 355.70 23.80L355.70 23.80L355.70 23.80Q355.12 23.36 354.56 23.36L354.56 23.36L354.56 22.52L354.56 22.52Q357.76 22.76 361.08 22.76L361.08 22.76L361.08 22.76Q363.68 22.76 366.88 22.52L366.88 22.52L366.88 23.36L366.88 23.36Q365.72 23.36 365.10 23.52L365.10 23.52L365.10 23.52Q364.48 23.68 364.48 24.24L364.48 24.24L364.48 24.24Q364.48 24.56 364.64 24.88L364.64 24.88L369.56 36.60L371.24 31.48L371.24 31.48Q372.00 29.16 372.00 27.40L372.00 27.40L372.00 27.40Q372.00 25.52 371.20 24.48L371.20 24.48L371.20 24.48Q370.40 23.44 369.08 23.36L369.08 23.36L369.08 22.52L369.08 22.52Q370.56 22.68 373.28 22.68L373.28 22.68Z" transform="rotate(0 189.15999698638916 31.399999618530273)"></path><defs id="SvgjsDefs1010"></defs></svg></g></svg>